<svg xmlns="http://www.w3.org/2000/svg" width="128" height="128" viewBox="0 0 128 128" role="img" aria-label="보통">
  <title>보통</title>
  <defs>
    <filter id="shadow" x="-20%" y="-20%" width="140%" height="140%">
      <feDropShadow dx="0" dy="3" stdDeviation="3" flood-opacity="0.15"/>
    </filter>
  </defs>
  <g filter="url(#shadow)">
    <path d="M31 34 C19 22 12 24 11 39 C10 55 22 68 36 63 Z" fill="#7A4A2A"/>
    <path d="M97 34 C109 22 116 24 117 39 C118 55 106 68 92 63 Z" fill="#7A4A2A"/>
    <circle cx="64" cy="65" r="43" fill="#F5CBA7"/>
    <ellipse cx="64" cy="76" rx="25" ry="20" fill="#FFF3E3" opacity="0.95"/>
    <circle cx="51" cy="60" r="4" fill="#3A2A22"/>
    <circle cx="77" cy="60" r="4" fill="#3A2A22"/>
    <path d="M34 52 Q64 58 94 52" stroke="#3A2A22" stroke-width="4" stroke-linecap="round" fill="none"/><path d="M48 68 Q64 68 80 68" stroke="#3A2A22" stroke-width="4" stroke-linecap="round" fill="none"/>
    <path d="M58 72 Q64 77 70 72" stroke="#3A2A22" stroke-width="4" stroke-linecap="round" fill="none"/>
    <ellipse cx="64" cy="72" rx="6" ry="4" fill="#3A2A22"/>
    <path d="M52 82 Q64 85 76 82" stroke="#3A2A22" stroke-width="4" stroke-linecap="round" fill="none"/>
    <circle cx="45" cy="76" r="6" fill="#F5A6A6" opacity="0.45"/>
    <circle cx="83" cy="76" r="6" fill="#F5A6A6" opacity="0.45"/>
    
  </g>
</svg>
