<svg xmlns="http://www.w3.org/2000/svg" width="128" height="128" viewBox="0 0 128 128" role="img" aria-label="매우 좋음">
  <title>매우 좋음</title>
  <defs>
    <filter id="shadow" x="-20%" y="-20%" width="140%" height="140%">
      <feDropShadow dx="0" dy="3" stdDeviation="3" flood-opacity="0.15"/>
    </filter>
  </defs>
  <g filter="url(#shadow)">
    <path d="M31 34 C19 22 12 24 11 39 C10 55 22 68 36 63 Z" fill="#7A4A2A"/>
    <path d="M97 34 C109 22 116 24 117 39 C118 55 106 68 92 63 Z" fill="#7A4A2A"/>
    <circle cx="64" cy="65" r="43" fill="#F8C471"/>
    <ellipse cx="64" cy="76" rx="25" ry="20" fill="#FFF3E3" opacity="0.95"/>
    <circle cx="51" cy="60" r="4" fill="#3A2A22"/>
    <circle cx="77" cy="60" r="4" fill="#3A2A22"/>
    <path d="M47 55 C43 49 34 52 36 60 C38 66 47 70 51 74 C55 70 64 66 66 60 C68 52 59 49 55 55 C53 51 49 51 47 55Z" fill="#E74C3C" transform="scale(.45) translate(65,75)"/>
    <path d="M47 55 C43 49 34 52 36 60 C38 66 47 70 51 74 C55 70 64 66 66 60 C68 52 59 49 55 55 C53 51 49 51 47 55Z" fill="#E74C3C" transform="scale(.45) translate(123,75)"/>
    <path d="M58 72 Q64 77 70 72" stroke="#3A2A22" stroke-width="4" stroke-linecap="round" fill="none"/>
    <ellipse cx="64" cy="72" rx="6" ry="4" fill="#3A2A22"/>
    <path d="M45 80 Q64 100 83 80" stroke="#3A2A22" stroke-width="4" stroke-linecap="round" fill="none"/>
    <circle cx="45" cy="76" r="6" fill="#F5A6A6" opacity="0.45"/>
    <circle cx="83" cy="76" r="6" fill="#F5A6A6" opacity="0.45"/>
    <path d="M102 28 L106 39 L117 43 L106 47 L102 58 L98 47 L87 43 L98 39 Z" fill="#F4D03F"/><circle cx="25" cy="30" r="4" fill="#F4D03F"/>
  </g>
</svg>
